<mxfile host="app.diagrams.net" agent="Mozilla/5.0 (Macintosh; Intel Mac OS X 10_15_7) AppleWebKit/605.1.15 (KHTML, like Gecko) Version/18.3 Safari/605.1.15" version="26.1.1">
  <diagram name="Page-1" id="Ed0YM3M6fh9g5Qu11SvH">
    <mxGraphModel dx="1026" dy="692" grid="1" gridSize="10" guides="1" tooltips="1" connect="1" arrows="1" fold="1" page="1" pageScale="1" pageWidth="850" pageHeight="1100" math="0" shadow="0">
      <root>
        <mxCell id="0" />
        <mxCell id="1" parent="0" />
        <mxCell id="NuMGgBe0YNGepJRJQAQB-1" value="Entity" style="whiteSpace=wrap;html=1;align=center;" vertex="1" parent="1">
          <mxGeometry x="220" y="170" width="100" height="40" as="geometry" />
        </mxCell>
        <mxCell id="NuMGgBe0YNGepJRJQAQB-2" value="Entity" style="whiteSpace=wrap;html=1;align=center;" vertex="1" parent="1">
          <mxGeometry x="220" y="320" width="100" height="40" as="geometry" />
        </mxCell>
        <mxCell id="NuMGgBe0YNGepJRJQAQB-3" value="Entity" style="whiteSpace=wrap;html=1;align=center;" vertex="1" parent="1">
          <mxGeometry x="10" y="330" width="100" height="40" as="geometry" />
        </mxCell>
        <mxCell id="NuMGgBe0YNGepJRJQAQB-4" value="Entity" style="whiteSpace=wrap;html=1;align=center;" vertex="1" parent="1">
          <mxGeometry x="400" y="260" width="100" height="40" as="geometry" />
        </mxCell>
        <mxCell id="NuMGgBe0YNGepJRJQAQB-5" value="Entity" style="whiteSpace=wrap;html=1;align=center;" vertex="1" parent="1">
          <mxGeometry x="610" y="320" width="100" height="40" as="geometry" />
        </mxCell>
        <mxCell id="NuMGgBe0YNGepJRJQAQB-6" value="Entity" style="whiteSpace=wrap;html=1;align=center;" vertex="1" parent="1">
          <mxGeometry x="610" y="170" width="100" height="40" as="geometry" />
        </mxCell>
        <mxCell id="NuMGgBe0YNGepJRJQAQB-7" value="Entity" style="whiteSpace=wrap;html=1;align=center;" vertex="1" parent="1">
          <mxGeometry x="220" y="470" width="100" height="40" as="geometry" />
        </mxCell>
      </root>
    </mxGraphModel>
  </diagram>
</mxfile>
